<svg xmlns="http://www.w3.org/2000/svg" width="20" height="20" viewBox="0 0 20 20">
  <defs>
    <style>
      .cls-1 {
        fill: #fff;
      }

      .cls-2 {
        fill: none;
      }
    </style>
  </defs>
  <g id="facebook" transform="translate(-811 -3627)">
    <path id="facebook_1_" data-name="facebook (1)" class="cls-1" d="M18.558,0H1.442A1.442,1.442,0,0,0,0,1.442V18.558A1.442,1.442,0,0,0,1.442,20h9.241V12.266h-2.6V9.238h2.6V7.01a3.636,3.636,0,0,1,3.882-3.99,21.363,21.363,0,0,1,2.329.119v2.7H15.305c-1.254,0-1.5.6-1.5,1.47V9.238h3l-.391,3.027H13.809V20h4.749A1.442,1.442,0,0,0,20,18.558V1.442A1.442,1.442,0,0,0,18.558,0Zm0,0" transform="translate(811 3627)"/>
    <rect id="사각형_7" data-name="사각형 7" class="cls-2" width="20" height="20" transform="translate(811 3627)"/>
  </g>
</svg>
