<svg id="home_vision_01" xmlns="http://www.w3.org/2000/svg" width="100" height="100" viewBox="0 0 100 100">
  <defs>
    <style>
      .cls-1 {
        fill: #fdba49;
      }
    </style>
  </defs>
  <g id="그룹_13" data-name="그룹 13" transform="translate(0 0)">
    <g id="그룹_12" data-name="그룹 12">
      <path id="패스_112" data-name="패스 112" class="cls-1" d="M98.333,53.333A1.666,1.666,0,0,0,100,51.667v-10A1.666,1.666,0,0,0,98.333,40H96.038a21.894,21.894,0,0,1,0-20h2.295a1.667,1.667,0,0,0,1.3-2.708,11.607,11.607,0,0,1,0-14.585A1.667,1.667,0,0,0,98.333,0H15A6.674,6.674,0,0,0,8.333,6.667v6.667A6.63,6.63,0,0,0,10.477,18.2,13.3,13.3,0,0,0,7.877,40H6.667A6.639,6.639,0,0,0,2.3,51.667a6.624,6.624,0,0,0-2.3,5v6.667A6.674,6.674,0,0,0,6.667,70h.043a16.645,16.645,0,0,0,9.957,30H98.333a1.667,1.667,0,0,0,1.387-2.591,25.3,25.3,0,0,1,0-28.151,1.667,1.667,0,0,0-1.387-2.591H92.55a11.542,11.542,0,0,1,0-13.333ZM11.667,6.667A3.337,3.337,0,0,1,15,3.333H95.3a14.878,14.878,0,0,0,0,13.333H15a3.337,3.337,0,0,1-3.333-3.333ZM6.667,30a10.011,10.011,0,0,1,10-10H92.321a25.307,25.307,0,0,0,0,20H16.667A10.011,10.011,0,0,1,6.667,30Zm0,36.667a3.337,3.337,0,0,1-3.333-3.333V56.667a3.337,3.337,0,0,1,3.333-3.333H88.645a14.861,14.861,0,0,0,0,13.333H6.667ZM95.407,70a28.608,28.608,0,0,0,0,26.667H16.667a13.333,13.333,0,0,1,0-26.667h78.74ZM6.667,50a3.333,3.333,0,0,1,0-6.667h90V50Z" transform="translate(0 0)"/>
    </g>
  </g>
  <g id="그룹_15" data-name="그룹 15" transform="translate(6.727 73.091)">
    <g id="그룹_14" data-name="그룹 14">
      <path id="패스_113" data-name="패스 113" class="cls-1" d="M115.182,355.364V352h-73.2a10.092,10.092,0,0,0,0,20.182h73.2v-3.364h-73.2V355.364ZM38.655,367.882a6.7,6.7,0,0,1,0-11.583Z" transform="translate(-32 -352)"/>
    </g>
  </g>
  <g id="그룹_17" data-name="그룹 17" transform="translate(8.409 21.627)">
    <g id="그룹_16" data-name="그룹 16">
      <path id="패스_114" data-name="패스 114" class="cls-1" d="M119.818,107.364V104h-71.5a8.41,8.41,0,0,0,0,16.818h71.5v-3.364H49.977V107.364Zm-73.167,9.781a5.034,5.034,0,0,1,0-9.471Z" transform="translate(-40 -104)"/>
    </g>
  </g>
  <g id="그룹_19" data-name="그룹 19" transform="translate(6.727 54.944)">
    <g id="그룹_18" data-name="그룹 18">
      <path id="패스_115" data-name="패스 115" class="cls-1" d="M110.136,267.364V264H33.662A1.672,1.672,0,0,0,32,265.682v6.727a1.672,1.672,0,0,0,1.662,1.682h76.474v-3.364H35.325v-3.364Z" transform="translate(-32 -264)"/>
    </g>
  </g>
  <g id="그룹_21" data-name="그룹 21" transform="translate(13.455 5.045)">
    <g id="그룹_20" data-name="그룹 20">
      <path id="패스_116" data-name="패스 116" class="cls-1" d="M142.136,27.364V24H65.662A1.672,1.672,0,0,0,64,25.682v6.727a1.672,1.672,0,0,0,1.662,1.682h76.474V30.727H67.325V27.364Z" transform="translate(-64 -24)"/>
    </g>
  </g>
</svg>
