<svg id="home_vision_02" xmlns="http://www.w3.org/2000/svg" width="100" height="99.893" viewBox="0 0 100 99.893">
  <defs>
    <style>
      .cls-1 {
        fill: #fdba49;
      }
    </style>
  </defs>
  <path id="패스_118" data-name="패스 118" class="cls-1" d="M38.292,138.95a1.464,1.464,0,1,0,2.071-2.071l-3.555-3.555,3.555-3.554a1.464,1.464,0,1,0-2.071-2.071l-4.59,4.59a1.464,1.464,0,0,0,0,2.071Zm0,0" transform="translate(-26.772 -102.512)"/>
  <path id="패스_119" data-name="패스 119" class="cls-1" d="M116.915,133.321l-3.555,3.555a1.464,1.464,0,1,0,2.071,2.071l4.591-4.591a1.463,1.463,0,0,0,0-2.07L115.43,127.7a1.464,1.464,0,0,0-2.07,2.071Zm0,0" transform="translate(-90.875 -102.509)"/>
  <path id="패스_120" data-name="패스 120" class="cls-1" d="M77.346,139.273a1.464,1.464,0,0,0,1.9-.827l3.606-9.181a1.464,1.464,0,1,0-2.725-1.071l-3.607,9.181A1.464,1.464,0,0,0,77.346,139.273Zm0,0" transform="translate(-61.487 -102.507)"/>
  <path id="패스_121" data-name="패스 121" class="cls-1" d="M38.979,221.143h9.863a1.464,1.464,0,0,0,0-2.928H38.979a1.464,1.464,0,0,0,0,2.928Zm0,0" transform="translate(-30.186 -175.693)"/>
  <path id="패스_122" data-name="패스 122" class="cls-1" d="M134.316,218.215h-17.34a1.464,1.464,0,0,0,0,2.928h17.34a1.464,1.464,0,1,0,0-2.928Zm0,0" transform="translate(-92.953 -175.693)"/>
  <path id="패스_123" data-name="패스 123" class="cls-1" d="M38.979,252.749h4.2a1.464,1.464,0,0,0,0-2.928h-4.2a1.464,1.464,0,0,0,0,2.928Zm0,0" transform="translate(-30.186 -201.125)"/>
  <path id="패스_124" data-name="패스 124" class="cls-1" d="M178.312,249.82a1.464,1.464,0,0,0,0,2.928h2.558a1.464,1.464,0,1,0,0-2.928Zm0,0" transform="translate(-142.308 -201.125)"/>
  <path id="패스_125" data-name="패스 125" class="cls-1" d="M100.807,251.284a1.464,1.464,0,0,0-1.464-1.464H86.776a1.464,1.464,0,0,0,0,2.928H99.344A1.464,1.464,0,0,0,100.807,251.284Zm0,0" transform="translate(-68.651 -201.125)"/>
  <path id="패스_126" data-name="패스 126" class="cls-1" d="M213.7,251.284a1.464,1.464,0,0,0,1.464,1.465h4.792a1.464,1.464,0,1,0,0-2.928h-4.792A1.464,1.464,0,0,0,213.7,251.284Zm0,0" transform="translate(-171.965 -201.125)"/>
  <path id="패스_127" data-name="패스 127" class="cls-1" d="M166.863,152.206h5.055a1.464,1.464,0,1,0,0-2.928h-5.055a1.464,1.464,0,1,0,0,2.928Zm0,0" transform="translate(-133.095 -120.219)"/>
  <path id="패스_128" data-name="패스 128" class="cls-1" d="M221.711,152.206h30.842a1.464,1.464,0,0,0,0-2.928H221.711a1.464,1.464,0,1,0,0,2.928Zm0,0" transform="translate(-177.237 -120.219)"/>
  <path id="패스_129" data-name="패스 129" class="cls-1" d="M304.141,182.246H291.647a1.464,1.464,0,0,0,0,2.928h12.494a1.464,1.464,0,0,0,0-2.928Zm0,0" transform="translate(-233.51 -146.749)"/>
  <path id="패스_130" data-name="패스 130" class="cls-1" d="M249.985,182.246H245.69a1.464,1.464,0,0,0,0,2.928h4.295a1.464,1.464,0,0,0,0-2.928Zm0,0" transform="translate(-196.527 -146.749)"/>
  <path id="패스_131" data-name="패스 131" class="cls-1" d="M166.863,185.175h10.521a1.464,1.464,0,0,0,0-2.928H166.863a1.464,1.464,0,1,0,0,2.928Zm0,0" transform="translate(-133.096 -146.749)"/>
  <path id="패스_132" data-name="패스 132" class="cls-1" d="M110.573,281.16h-9.862a1.464,1.464,0,1,0,0,2.928h9.862a1.464,1.464,0,1,0,0-2.928Zm0,0" transform="translate(-79.863 -226.344)"/>
  <path id="패스_133" data-name="패스 133" class="cls-1" d="M46.557,281.16H38.979a1.464,1.464,0,1,0,0,2.928h7.577a1.464,1.464,0,1,0,0-2.928Zm0,0" transform="translate(-30.186 -226.344)"/>
  <path id="패스_134" data-name="패스 134" class="cls-1" d="M189.637,281.16H176.753a1.464,1.464,0,1,0,0,2.928h12.884a1.464,1.464,0,1,0,0-2.928Zm0,0" transform="translate(-141.055 -226.344)"/>
  <path id="패스_135" data-name="패스 135" class="cls-1" d="M302.857,242.668h-7.045a1.464,1.464,0,0,0,0,2.928h7.045a1.464,1.464,0,0,0,0-2.928Zm0,0" transform="translate(-236.86 -195.37)"/>
  <path id="패스_136" data-name="패스 136" class="cls-1" d="M394.44,245.6h9.946a1.464,1.464,0,1,0,0-2.928H394.44a1.464,1.464,0,0,0,0,2.928Zm0,0" transform="translate(-316.231 -195.37)"/>
  <path id="패스_137" data-name="패스 137" class="cls-1" d="M359.6,242.668H357.32a1.464,1.464,0,1,0,0,2.928H359.6a1.464,1.464,0,0,0,0-2.928Zm0,0" transform="translate(-286.353 -195.37)"/>
  <path id="패스_138" data-name="패스 138" class="cls-1" d="M295.812,327.256h7.045a1.464,1.464,0,0,0,0-2.928h-7.045a1.464,1.464,0,0,0,0,2.928Zm0,0" transform="translate(-236.86 -261.081)"/>
  <path id="패스_139" data-name="패스 139" class="cls-1" d="M394.44,327.256h9.946a1.464,1.464,0,1,0,0-2.928H394.44a1.464,1.464,0,0,0,0,2.928Zm0,0" transform="translate(-316.231 -261.081)"/>
  <path id="패스_140" data-name="패스 140" class="cls-1" d="M357.323,327.256H359.6a1.464,1.464,0,1,0,0-2.928h-2.279a1.464,1.464,0,0,0,0,2.928Zm0,0" transform="translate(-286.356 -261.081)"/>
  <path id="패스_141" data-name="패스 141" class="cls-1" d="M302.857,405.988h-7.045a1.464,1.464,0,1,0,0,2.928h7.045a1.464,1.464,0,1,0,0-2.928Zm0,0" transform="translate(-236.86 -326.792)"/>
  <path id="패스_142" data-name="패스 142" class="cls-1" d="M404.386,405.988H394.44a1.464,1.464,0,0,0,0,2.928h9.946a1.464,1.464,0,1,0,0-2.928Zm0,0" transform="translate(-316.231 -326.792)"/>
  <path id="패스_143" data-name="패스 143" class="cls-1" d="M359.6,405.988H357.32a1.464,1.464,0,1,0,0,2.928H359.6a1.464,1.464,0,1,0,0-2.928Zm0,0" transform="translate(-286.353 -326.792)"/>
  <path id="패스_144" data-name="패스 144" class="cls-1" d="M93.56.5H6.442A6.449,6.449,0,0,0,0,6.942V77.756A6.449,6.449,0,0,0,6.442,84.2h5.508a1.463,1.463,0,1,0,0-2.927H6.442a3.518,3.518,0,0,1-3.514-3.514V72.2h53.32v2.522h-1.16A2.881,2.881,0,0,0,52.208,77.6V81.27H20.847a1.463,1.463,0,1,0,0,2.927H34.919v5.249H30.5a5.352,5.352,0,0,0-5.346,5.346v3.162a2.442,2.442,0,0,0,2.439,2.439H72.3a2.442,2.442,0,0,0,2.439-2.439V94.792a5.352,5.352,0,0,0-5.346-5.346H64.97V87.6H92.026A2.881,2.881,0,0,0,94.9,84.717v-.689a6.45,6.45,0,0,0,4.985-6.272L100,6.941A6.447,6.447,0,0,0,93.56.5ZM55.136,68.72V61.7H91.978V68.72Zm4.038-9.943V55.7H87.939v3.079ZM87.939,71.646v3.08H59.174v-3.08ZM37.846,84.2H52.208v.521A2.881,2.881,0,0,0,55.087,87.6h6.957v1.85h-24.2ZM69.39,92.373a2.421,2.421,0,0,1,2.419,2.419v2.674H28.081V94.792A2.422,2.422,0,0,1,30.5,92.373Zm22.588-7.7H55.136V77.654H91.978Zm4.985-6.912a3.515,3.515,0,0,1-2.058,3.194V77.6a2.882,2.882,0,0,0-2.879-2.878h-1.16V72.2h6.1Zm0-8.479H94.857c.03-.166.048-7.622.048-7.622a2.882,2.882,0,0,0-2.879-2.879h-1.16V55.7h1.16a2.882,2.882,0,0,0,2.879-2.879V45.706a2.882,2.882,0,0,0-2.879-2.879H83.76a1.464,1.464,0,0,0,0,2.927h8.218V52.77H55.136V45.755H74.653a1.464,1.464,0,0,0,0-2.927H55.087a2.882,2.882,0,0,0-2.879,2.879v7.113A2.882,2.882,0,0,0,55.087,55.7h1.16v3.079h-1.16a2.882,2.882,0,0,0-2.879,2.879s.018,7.456.048,7.622H2.927V20.408H96.963Zm0-51.8H3.035V6.941A3.518,3.518,0,0,1,6.549,3.427h86.9a3.518,3.518,0,0,1,3.514,3.514Zm0,0" transform="translate(0 -0.5)"/>
  <path id="패스_145" data-name="패스 145" class="cls-1" d="M37.57,29.262a4.3,4.3,0,1,0,4.3,4.3A4.3,4.3,0,0,0,37.57,29.262Zm0,5.665a1.368,1.368,0,1,1,1.368-1.368A1.37,1.37,0,0,1,37.57,34.926Zm0,0" transform="translate(-26.772 -23.642)"/>
  <path id="패스_146" data-name="패스 146" class="cls-1" d="M93.555,29.262a4.3,4.3,0,1,0,4.3,4.3A4.3,4.3,0,0,0,93.555,29.262Zm0,5.665a1.368,1.368,0,1,1,1.368-1.368A1.37,1.37,0,0,1,93.555,34.926Zm0,0" transform="translate(-71.825 -23.642)"/>
  <path id="패스_147" data-name="패스 147" class="cls-1" d="M149.542,29.262a4.3,4.3,0,1,0,4.3,4.3A4.3,4.3,0,0,0,149.542,29.262Zm0,5.665a1.368,1.368,0,1,1,1.368-1.368A1.37,1.37,0,0,1,149.542,34.926Zm0,0" transform="translate(-116.878 -23.642)"/>
</svg>
