<svg xmlns="http://www.w3.org/2000/svg" width="20" height="20.14" viewBox="0 0 20 20.14">
  <defs>
    <style>
      .cls-1 {
        fill: none;
      }
    </style>
  </defs>
  <g id="그룹_12" data-name="그룹 12" transform="translate(-776 -3627.86)">
    <g id="instagram" transform="translate(776 3627.86)">
      <g id="그룹_7" data-name="그룹 7">
        <g id="그룹_6" data-name="그룹 6">
          <path id="패스_110" data-name="패스 110" d="M13.75,0H6.25A6.251,6.251,0,0,0,0,6.25v7.5A6.251,6.251,0,0,0,6.25,20h7.5A6.251,6.251,0,0,0,20,13.75V6.25A6.251,6.251,0,0,0,13.75,0Zm4.375,13.75a4.38,4.38,0,0,1-4.375,4.375H6.25A4.38,4.38,0,0,1,1.875,13.75V6.25A4.38,4.38,0,0,1,6.25,1.875h7.5A4.38,4.38,0,0,1,18.125,6.25Z"/>
        </g>
      </g>
      <g id="그룹_9" data-name="그룹 9" transform="translate(4.965 4.965)">
        <g id="그룹_8" data-name="그룹 8">
          <path id="패스_111" data-name="패스 111" d="M133.035,128a5.035,5.035,0,1,0,5.035,5.035A5.035,5.035,0,0,0,133.035,128Zm0,8.182a3.147,3.147,0,1,1,3.147-3.147A3.151,3.151,0,0,1,133.035,136.182Z" transform="translate(-128 -128)"/>
        </g>
      </g>
      <g id="그룹_11" data-name="그룹 11" transform="translate(14.701 3.957)">
        <g id="그룹_10" data-name="그룹 10">
          <circle id="타원_33" data-name="타원 33" cx="0.671" cy="0.671" r="0.671"/>
        </g>
      </g>
    </g>
    <rect id="사각형_6" data-name="사각형 6" class="cls-1" width="20" height="20" transform="translate(776 3628)"/>
  </g>
</svg>
