<svg xmlns="http://www.w3.org/2000/svg" width="20" height="20" viewBox="0 0 20 20">
  <defs>
    <style>
      .cls-1 {
        fill: none;
      }
    </style>
  </defs>
  <g id="그룹_4" data-name="그룹 4" transform="translate(-1029 -2750)">
    <path id="ic_local_phone_24px" d="M6.62,10.79a15.149,15.149,0,0,0,6.59,6.59l2.2-2.2a.994.994,0,0,1,1.02-.24,11.407,11.407,0,0,0,3.57.57,1,1,0,0,1,1,1V20a1,1,0,0,1-1,1A17,17,0,0,1,3,4,1,1,0,0,1,4,3H7.5a1,1,0,0,1,1,1,11.36,11.36,0,0,0,.57,3.57,1,1,0,0,1-.25,1.02Z" transform="translate(1027 2748)"/>
    <rect id="사각형_4" data-name="사각형 4" class="cls-1" width="20" height="20" transform="translate(1029 2750)"/>
  </g>
</svg>
